# xmcd CD database file
# Copyright (C) 1993-1998 Ti Kan
#
# Track frame offsets:
#  150
#  15615
#  29340
#  47925
#  59850
#  73062
#  87592
#  103335
#  121537
#  133152
#  147057
#  161380
#
# Disc length: 2326 seconds
#
# Revision: 1
# Processed by: cddbd v1.4b41PL1 Copyright (c) Steve Scherf et al.
# Submitted via: KiC 2.1 - (C) 1996-1998 Alwin Hoogerdijk
#
DISCID=ae09140c
DTITLE=Craig Duncan and The Original Smoky Mountain Band - Hymns from the Heart
DYEAR=1900
DGENRE=
TTITLE0=Morning Has Broken
TTITLE1=To God Be the Glory
TTITLE2=O Mighty God
TTITLE3=I Will Arise
TTITLE4=He Leadeth Me
TTITLE5=Softly and Tenderly
TTITLE6=Fairest Lord Jesus
TTITLE7=Wayfaring Stranger
TTITLE8=Only Trust Him
TTITLE9=Amazing Grace
TTITLE10=Blessed Be the Name
TTITLE11=Just As I Am
EXTD=
EXTT0=
EXTT1=
EXTT2=
EXTT3=
EXTT4=
EXTT5=
EXTT6=
EXTT7=
EXTT8=
EXTT9=
EXTT10=
EXTT11=
PLAYORDER=
